# xmcd
# 
# Track frame offsets:
#     150
#     30697
#     54335
#     72197
#     91227
#     109010
#     140200
#     161145
#     180235
#     245340
# 
# Disc length: 3538
# 
# Revision: 21
# Processed by: cddbd v1.5.2PL0 Copyright (c) Steve Scherf et al.
# Submitted via: fre:ac v1.0.27
# 
DISCID=810dd00a
DTITLE=Nick Cave And The Bad Seeds - Murder Ballads
DYEAR=1995
DGENRE=Folk-Rock
TTITLE0=Song Of Joy
TTITLE1=Stagger Lee
TTITLE2=Henry Lee
TTITLE3=Lovely Creature
TTITLE4=Where The Wild Roses Grow
TTITLE5=The Curse Of Millhaven
TTITLE6=The Kindness Of Strangers
TTITLE7=Crow Jane
TTITLE8=O'Malley's Bar
TTITLE9=Death Is Not The End
EXTD=YEAR: 1995
EXTT0=
EXTT1=
EXTT2=
EXTT3=
EXTT4=
EXTT5=
EXTT6=
EXTT7=
EXTT8=
EXTT9=
PLAYORDER=
